# xmcd CD database file
#
# Track frame offsets:
#	150
#	11980
#	25815
#	39088
#	51140
#	65313
#	78360
#	90183
#	103485
#	118040
#	133543
#	146280
#	159980
#	175013
#	188253
#	201720
#	216015
#	230595
#	246125
#	258628
#
# Disc length: 3609 seconds
#
# Revision: 0
# Processed by: cddbd v1.4PL0 Copyright (c) Steve Scherf et al.
# Submitted via: CDex 1.51
#
DISCID=0a0e1714
DTITLE=Ella Fitzgerald - The Fabulous Ella Fitzgerald [CD2]
DYEAR=1996
DGENRE=Jazz
TTITLE0=If Dreams Come True
TTITLE1=Bei Mir Bist Du Schoen
TTITLE2=It's Wonderful
TTITLE3=A-Tisket, A-Tasket
TTITLE4=McPherson Is Rehearsin' (To Swing)
TTITLE5=FDR Jones
TTITLE6=I Found My Yellow Basket
TTITLE7=This Love Of Mine
TTITLE8=Somebody Nobody Loves
TTITLE9=You Don't Know What Love Is
TTITLE10=Make Love To Me
TTITLE11=My Heart And I Decided
TTITLE12=He's My Guy
TTITLE13=Cow Cow Boogie
TTITLE14=Once Too Often
TTITLE15=Into Each Life Some Rain Must Fall
TTITLE16=I'm Making Believe
TTITLE17=I'm Confessin' (That I Love You)
TTITLE18=I'm Beginning To See The Light
TTITLE19=It's Only A Paper Moon
EXTD=YEAR: 1996
EXTT0=
EXTT1=
EXTT2=
EXTT3=
EXTT4=
EXTT5=
EXTT6=
EXTT7=
EXTT8=
EXTT9=
EXTT10=
EXTT11=
EXTT12=
EXTT13=
EXTT14=
EXTT15=
EXTT16=
EXTT17=
EXTT18=
EXTT19=
PLAYORDER=
